<?xml version="1.0" encoding="UTF-8"?>
<svg
xmlns="http://www.w3.org/2000/svg"
width="625.50"
height="239.99"
viewBox="0 0 625.50 239.99">

<path
d="M 37.07 30.03 L 36.81 30.03 L 36.39 30.03 L 35.38 30.03 L 32.19 30.74 L 27.94 32.90 L 23.14 37.21 L 17.98 43.34 L 13.70 50.14 L 10.43 57.05 L 8.59 64.48 L 8.00 72.96 L 8.00 82.31 L 8.00 91.03 L 9.54 98.40 L 13.53 104.66 L 19.16 109.41 L 26.13 112.75 L 34.61 114.57 L 43.52 115.26 L 50.51 115.43 L 55.58 114.86 L 59.01 113.87 L 60.47 113.18 L 60.61 112.90 L 59.81 113.17 L 58.23 114.25 L 55.47 117.10 L 50.79 122.93 L 45.09 130.95 L 38.91 141.75 L 32.39 155.70 L 26.59 170.75 L 22.13 185.92 L 19.29 200.52 L 18.14 211.75 L 17.99 219.98 L 17.99 226.34 L 18.84 229.80 L 21.19 231.46 L 25.00 231.95 L 30.29 231.99 L 39.35 229.40 L 52.93 221.54 L 69.55 207.80 L 87.33 188.97 L 104.24 165.52 L 119.35 139.37 L 131.46 113.08 L 139.46 91.07 L 145.23 71.36 L 150.21 51.51 L 153.32 35.23 L 155.01 23.68 L 155.82 16.25 L 156.08 11.19 L 156.08 8.57 L 156.08 8.00 L 156.05 8.87 L 155.38 12.00 L 153.68 19.59 L 151.09 33.15 L 148.03 52.74 L 145.05 76.85 L 142.74 102.23 L 141.38 126.95 L 140.89 147.48 L 140.89 165.34 L 140.89 182.23 L 141.49 193.16 L 142.92 199.71 L 144.61 204.01 L 146.26 206.09 L 147.81 206.85 L 150.05 206.98 L 153.82 206.10 L 161.18 201.82 L 172.00 193.21 L 184.40 180.12 L 197.92 161.54 L 209.77 139.39 L 217.85 118.45 L 223.05 100.03 L 225.87 83.00 L 227.14 68.56 L 227.70 58.28 L 227.71 51.27 L 227.31 46.33 L 226.47 43.74 L 225.44 42.90 L 224.24 42.79 L 222.54 44.22 L 218.66 49.96 L 212.51 60.48 L 206.62 72.44 L 201.14 86.01 L 195.49 104.31 L 191.28 125.47 L 189.32 147.25 L 188.88 166.13 L 188.88 182.38 L 188.88 194.71 L 188.88 201.85 L 188.88 206.45 L 188.88 208.17 L 188.98 208.28 L 189.37 206.48 L 190.74 201.22 L 193.76 192.72 L 198.88 181.75 L 207.23 167.91 L 217.33 154.80 L 227.22 144.95 L 235.72 138.73 L 242.21 135.81 L 247.28 134.53 L 251.17 134.55 L 254.21 137.75 L 256.84 145.34 L 259.33 155.34 L 261.94 165.71 L 264.63 174.02 L 267.05 179.77 L 269.59 183.67 L 273.02 186.36 L 277.91 187.79 L 284.26 188.04 L 293.81 185.36 L 304.31 179.45 L 314.16 171.51 L 323.91 160.94 L 331.29 148.51 L 335.55 134.44 L 337.07 119.75 L 337.19 108.67 L 336.11 101.85 L 333.73 97.80 L 330.05 96.62 L 324.63 100.74 L 319.01 111.11 L 314.74 124.83 L 312.55 139.92 L 312.16 154.48 L 313.64 166.53 L 317.42 174.81 L 322.76 179.78 L 329.14 182.11 L 336.90 182.19 L 347.01 177.50 L 357.48 166.64 L 366.06 150.99 L 372.45 131.67 L 376.26 113.95 L 378.37 101.29 L 380.20 91.78 L 381.86 85.72 L 383.33 83.47 L 385.48 83.83 L 389.33 90.48 L 394.53 105.70 L 399.18 122.82 L 402.59 135.88 L 405.26 145.63 L 407.13 152.04 L 408.32 154.60 L 409.82 155.23 L 413.51 151.82 L 421.12 142.54 L 430.46 131.82 L 440.69 121.23 L 451.93 112.25 L 462.41 108.29 L 475.27 109.04 L 492.96 119.19 L 515.82 139.07 L 544.72 159.89 L 575.20 174.17 L 599.07 179.37 L 617.50 179.05"
fill="none"
stroke="black"
stroke-width="3"
stroke-linecap="round"
stroke-linejoin="round"
/>
<path
d="M 107.11 124.02 L 107.91 123.67 L 114.10 120.52 L 130.50 111.86 L 150.20 102.61 L 169.52 95.08 L 185.68 89.53 L 196.25 87.16 L 204.86 85.70"
fill="none"
stroke="black"
stroke-width="3"
stroke-linecap="round"
stroke-linejoin="round"
/>
</svg>