<?xml version="1.0" encoding="UTF-8"?>
<svg
xmlns="http://www.w3.org/2000/svg"
width="519.76"
height="141.63"
viewBox="0 0 519.76 141.63">

<path
d="M 34.84 20.89 L 34.74 21.00 L 33.47 22.31 L 28.80 28.37 L 22.22 37.98 L 16.34 47.66 L 12.07 56.04 L 9.42 63.15 L 8.05 69.60 L 8.00 74.76 L 10.23 79.18 L 15.91 82.92 L 23.79 85.52 L 32.39 86.54 L 40.82 85.91 L 48.91 83.21 L 55.07 79.79 L 59.52 76.85 L 62.85 74.44 L 64.40 72.90 L 65.01 72.04 L 65.06 71.62 L 64.56 71.50 L 63.17 71.56 L 60.66 72.90 L 56.83 76.46 L 52.01 81.88 L 47.56 88.30 L 44.19 94.50 L 41.85 99.93 L 40.46 105.03 L 39.91 109.81 L 39.84 114.43 L 40.70 119.22 L 43.57 123.51 L 48.05 127.15 L 53.79 129.53 L 61.10 130.32 L 69.90 128.14 L 80.05 121.35 L 91.30 110.97 L 102.85 99.07 L 113.34 86.71 L 123.09 73.69 L 132.43 60.28 L 140.20 47.80 L 146.05 36.89 L 149.68 28.50 L 151.54 22.15 L 152.61 16.84 L 153.00 13.41 L 153.02 11.74 L 152.82 11.46 L 151.81 13.25 L 149.70 18.23 L 146.71 26.21 L 143.19 36.70 L 139.15 51.22 L 135.93 66.66 L 134.43 81.07 L 133.93 95.07 L 134.08 104.92 L 136.12 111.89 L 139.62 116.52 L 143.41 118.54 L 148.31 119.79 L 153.36 120.12 L 158.26 118.56 L 163.47 114.85 L 168.64 110.52 L 173.44 106.29 L 178.14 101.64 L 182.68 96.59 L 186.78 91.42 L 190.18 86.82 L 192.80 82.50 L 195.10 77.51 L 197.28 71.60 L 198.77 65.23 L 199.62 59.63 L 200.63 54.37 L 201.84 48.86 L 203.09 43.09 L 204.11 37.81 L 204.85 32.32 L 205.21 26.94 L 205.21 22.31 L 205.21 17.55 L 205.21 13.52 L 205.21 10.73 L 205.21 9.00 L 205.21 8.15 L 205.09 8.00 L 204.56 8.01 L 203.32 9.10 L 201.09 12.54 L 198.14 18.45 L 194.85 26.98 L 191.64 37.64 L 189.16 48.57 L 187.63 58.36 L 187.11 67.00 L 187.11 75.11 L 187.11 81.40 L 187.11 86.22 L 187.45 91.02 L 188.18 95.65 L 188.94 99.96 L 189.68 103.82 L 190.57 107.44 L 191.57 110.48 L 192.36 112.73 L 192.94 114.03 L 193.41 114.67 L 193.62 114.77 L 193.62 114.11 L 193.62 111.88 L 193.95 107.84 L 194.81 103.46 L 195.92 99.24 L 197.06 95.19 L 198.36 91.33 L 199.81 87.66 L 201.26 84.35 L 202.92 81.00 L 204.92 77.98 L 207.32 75.22 L 210.00 72.74 L 212.88 70.88 L 215.90 69.50 L 218.85 68.72 L 221.67 68.46 L 224.80 68.75 L 228.03 71.13 L 231.03 76.63 L 233.66 83.38 L 235.21 90.55 L 235.89 98.52 L 236.09 107.14 L 236.09 116.13 L 236.09 123.54 L 236.16 128.61 L 237.65 132.17 L 240.81 133.63 L 245.09 133.48 L 250.46 131.23 L 256.38 126.42 L 262.50 120.46 L 267.82 114.09 L 271.99 107.40 L 274.98 100.91 L 276.48 95.33 L 277.09 89.87 L 277.30 84.30 L 277.30 79.81 L 276.66 76.58 L 275.36 74.47 L 273.76 73.33 L 271.89 72.83 L 269.67 72.75 L 267.36 73.26 L 265.26 75.00 L 263.43 78.07 L 262.21 82.38 L 261.76 87.52 L 261.76 92.88 L 262.44 98.30 L 265.39 103.97 L 270.40 109.27 L 275.24 113.23 L 280.71 116.44 L 286.99 118.39 L 293.09 118.27 L 299.48 115.39 L 305.84 110.06 L 311.74 104.10 L 316.85 97.74 L 320.77 91.70 L 323.49 85.85 L 325.06 80.02 L 325.66 75.10 L 325.86 71.25 L 325.86 68.88 L 325.70 67.73 L 325.08 67.24 L 324.05 67.14 L 322.97 67.36 L 322.15 68.55 L 321.76 70.84 L 321.69 74.40 L 321.69 79.35 L 322.83 85.44 L 325.36 92.82 L 328.12 100.89 L 330.18 107.89 L 331.63 113.27 L 332.73 117.09 L 333.33 118.82 L 333.64 119.05 L 333.73 117.31 L 333.79 112.21 L 334.17 103.09 L 335.24 91.34 L 337.33 79.80 L 340.09 70.74 L 343.25 64.31 L 346.67 59.61 L 349.69 56.72 L 352.23 55.39 L 354.34 55.04 L 356.17 55.14 L 358.13 57.12 L 360.28 62.13 L 362.21 68.22 L 364.16 74.04 L 366.38 79.25 L 368.92 83.22 L 371.87 86.09 L 376.07 88.71 L 381.81 90.83 L 389.15 92.05 L 396.65 92.83 L 402.85 93.12 L 407.72 92.32 L 411.21 89.42 L 413.39 83.88 L 414.46 76.81 L 415.31 69.50 L 415.70 62.78"
fill="none"
stroke="black"
stroke-width="3"
stroke-linecap="round"
stroke-linejoin="round"
/>
<path
d="M 452.02 89.18 L 452.34 89.18 L 454.14 89.18 L 457.83 89.37 L 462.88 89.98 L 467.99 90.59 L 472.52 90.77 L 476.84 90.77 L 480.85 90.77 L 484.91 90.43 L 488.99 89.36 L 492.62 87.88 L 496.04 86.05 L 499.28 83.99 L 502.03 81.69 L 504.33 79.27 L 506.26 76.69 L 508.00 73.69 L 509.38 70.50 L 510.40 66.93 L 511.24 63.23 L 511.68 59.80 L 511.76 56.06 L 511.76 52.46 L 511.76 49.47 L 511.64 46.80 L 511.35 44.95 L 511.05 43.98 L 510.89 43.54 L 510.61 43.43"
fill="none"
stroke="black"
stroke-width="3"
stroke-linecap="round"
stroke-linejoin="round"
/>
<path
d="M 463.17 55.85 L 462.95 55.73 L 462.35 55.28 L 461.23 54.13 L 459.70 52.34 L 457.60 49.84 L 455.04 46.81 L 452.69 44.03 L 450.61 41.71 L 449.03 40.10 L 448.08 39.25 L 447.59 38.75"
fill="none"
stroke="black"
stroke-width="3"
stroke-linecap="round"
stroke-linejoin="round"
/>
<path
d="M 479.94 46.60 L 479.94 46.48 L 479.72 45.46 L 478.67 43.40 L 476.89 40.87 L 474.96 38.14 L 472.98 35.73 L 471.51 33.91 L 470.75 32.59 L 470.08 31.89 L 469.48 31.46 L 469.14 30.95 L 468.93 30.56 L 468.82 30.26 L 468.65 29.85 L 468.38 29.45 L 468.26 29.14 L 468.15 28.86 L 467.66 28.73"
fill="none"
stroke="black"
stroke-width="3"
stroke-linecap="round"
stroke-linejoin="round"
/>
</svg>