<svg width="20" height="20" viewBox="0 0 20 20" fill="none" xmlns="http://www.w3.org/2000/svg">
<path fill-rule="evenodd" clip-rule="evenodd" d="M14.177 14.4035C13.166 14.4035 13.2453 12.9762 14.177 12.9762C15.1087 12.9762 15.1881 14.4035 14.177 14.4035ZM5.82239 14.4035C4.81136 14.4035 4.89069 12.9762 5.82239 12.9762C6.75408 12.9762 6.83341 14.4035 5.82239 14.4035ZM17.2322 9.12909H16.8897C16.2754 9.12909 15.7479 8.76194 15.5118 8.23575C15.2757 8.76194 14.7482 9.12909 14.1341 9.12909C13.5198 9.12909 12.9924 8.76194 12.7563 8.23575C12.5202 8.76194 11.9927 9.12909 11.3784 9.12909C10.7643 9.12909 10.2368 8.76194 10.0007 8.23575C9.76461 8.76194 9.23707 9.12909 8.62297 9.12909C8.00874 9.12909 7.48133 8.76194 7.2451 8.23575C7.009 8.76194 6.48159 9.12909 5.86736 9.12909C5.25313 9.12909 4.72572 8.76194 4.48962 8.23575C4.25352 8.76194 3.72598 9.12909 3.11175 9.12909H2.77314C2.2594 9.68182 2.58528 10.1488 3.85395 10.1488V12.9872C3.85395 15.6548 6.92565 16.9886 9.99736 16.9886C13.0691 16.9886 16.1408 15.6548 16.1408 12.9872V10.1488C17.4105 10.1488 17.7419 9.68182 17.2322 9.12909Z" fill="black"/>
<path fill-rule="evenodd" clip-rule="evenodd" d="M10.0984 0C9.6486 0 9.21807 0.140963 8.86057 0.388853C8.61228 0.292109 8.34509 0.240923 8.07 0.240923C7.8804 0.240923 7.69093 0.26598 7.50682 0.31529C7.07173 0.431866 6.69186 0.680024 6.41047 1.01273C6.33087 1.00376 6.25075 0.9992 6.17048 0.9992C5.79061 0.9992 5.41529 1.09996 5.08525 1.29051C4.69533 1.51562 4.39277 1.85342 4.20705 2.24736C3.7512 2.31597 3.33059 2.52728 2.99855 2.85932C2.67964 3.17809 2.47476 3.58329 2.39758 4.01248C1.98032 4.19619 1.62322 4.50893 1.38899 4.9148C1.16375 5.30486 1.07062 5.74879 1.10693 6.18293C0.752651 6.4666 0.488681 6.85987 0.366209 7.31666C0.249633 7.75187 0.274556 8.20478 0.421951 8.6148C0.153291 8.98047 0 9.42882 0 9.90156C0 10.352 0.141231 10.783 0.389792 11.1409C0.224844 11.5636 0.192819 12.0362 0.315157 12.4932C0.431867 12.9282 0.679892 13.3078 1.01247 13.5892C0.962622 14.0403 1.05401 14.5051 1.29051 14.9147C1.51508 15.3038 1.85262 15.6075 2.24777 15.7936C2.31651 16.2419 2.52501 16.6672 2.85933 17.0015C3.17783 17.3199 3.57767 17.5273 4.01222 17.6044C4.19472 18.019 4.50586 18.3749 4.91468 18.611C5.24484 18.8016 5.62016 18.9024 6.00004 18.9024C6.06181 18.9024 6.12318 18.8997 6.18415 18.8946C6.46768 19.2481 6.86056 19.5115 7.31668 19.6337C7.50079 19.6831 7.69026 19.7081 7.87986 19.7081C8.13445 19.7081 8.38341 19.6638 8.61697 19.5796C8.98224 19.8472 9.42978 20 9.90158 20C10.3514 20 10.7819 19.859 11.1394 19.6111C11.3877 19.708 11.655 19.759 11.93 19.759C12.1196 19.759 12.3091 19.7341 12.4932 19.6847C12.9283 19.5681 13.3081 19.3199 13.5894 18.9872C13.6691 18.9962 13.7493 19.0008 13.8295 19.0008C14.2094 19.0008 14.5847 18.9 14.9147 18.7094C15.3048 18.4843 15.6072 18.1465 15.793 17.7526C16.2489 17.684 16.6694 17.4727 17.0015 17.1406C17.3202 16.8219 17.5251 16.4167 17.6024 15.9875C18.0197 15.8039 18.3768 15.4912 18.611 15.0853C18.8363 14.6952 18.9294 14.2513 18.8931 13.8172C19.2473 13.5335 19.5113 13.1402 19.6338 12.6833C19.7504 12.2481 19.7254 11.7952 19.578 11.3853C19.8467 11.0195 20 10.5713 20 10.0984C20 9.64804 19.8586 9.21698 19.6102 8.85921C19.7752 8.43646 19.8072 7.96372 19.6847 7.5068C19.5681 7.07172 19.3201 6.69211 18.9875 6.41072C19.0374 5.95969 18.946 5.49486 18.7095 5.08524C18.4848 4.69612 18.1474 4.39262 17.7522 4.20637C17.6835 3.75802 17.475 3.33286 17.1407 2.99854C16.8222 2.68003 16.4223 2.47261 15.9878 2.3957C15.8054 1.98112 15.4943 1.62509 15.0853 1.38899C14.7553 1.19845 14.38 1.09769 14.0001 1.09769C13.9383 1.09769 13.8768 1.10023 13.8159 1.10532C13.5323 0.75198 13.1394 0.488412 12.6833 0.366208C12.4992 0.316898 12.3097 0.291841 12.1203 0.291841C11.8655 0.291841 11.6166 0.336193 11.383 0.420476C11.0178 0.152754 10.5702 0 10.0984 0ZM10.0999 1.07346C10.552 1.07346 10.9398 1.34588 11.11 1.73526C11.127 1.77412 11.1648 1.79543 11.2027 1.79543C11.2298 1.79543 11.257 1.78444 11.2766 1.76113C11.4838 1.5135 11.7932 1.3653 12.1217 1.3653C12.216 1.3653 12.3119 1.37763 12.4073 1.40309C12.8448 1.52034 13.1491 1.8848 13.2121 2.30595C13.2196 2.35633 13.2645 2.38903 13.311 2.38903C13.3299 2.38903 13.3492 2.38353 13.3663 2.37161C13.5527 2.24096 13.7752 2.17115 14.0015 2.17115C14.1881 2.17115 14.3773 2.21872 14.5509 2.31881C14.9431 2.54526 15.1427 2.97606 15.0945 3.39908C15.0876 3.45884 15.1375 3.50828 15.1935 3.50828C15.2044 3.50828 15.2155 3.50641 15.2265 3.50239C15.3487 3.4579 15.4772 3.43552 15.6055 3.43552C15.8875 3.43552 16.1691 3.54285 16.3842 3.75805C16.7044 4.0783 16.7858 4.54607 16.6298 4.94216C16.6045 5.00635 16.6546 5.07656 16.7219 5.07656C16.7248 5.07656 16.7276 5.07643 16.7304 5.07616C16.7627 5.07334 16.7949 5.07187 16.8272 5.07187C17.2081 5.07187 17.5785 5.26898 17.7827 5.62272C18.0091 6.01493 17.9665 6.48779 17.7133 6.83002C17.6707 6.88777 17.7052 6.97312 17.776 6.98558C18.1852 7.05754 18.5361 7.35795 18.6508 7.7858C18.7681 8.22329 18.6046 8.6691 18.2714 8.93414C18.2152 8.97876 18.2265 9.07014 18.2916 9.10056C18.6683 9.27596 18.9296 9.65704 18.9296 10.0999C18.9296 10.5521 18.6573 10.9398 18.2679 11.1099C18.2012 11.1392 18.1862 11.2297 18.2419 11.2765C18.5607 11.5434 18.7146 11.9793 18.5999 12.4073C18.4827 12.8448 18.1182 13.1491 17.6971 13.2121C17.6261 13.2226 17.5903 13.3075 17.6314 13.3663C17.8699 13.7065 17.9057 14.1672 17.6842 14.5508C17.48 14.9044 17.1098 15.1015 16.7288 15.1015C16.6873 15.1015 16.6455 15.0991 16.6039 15.0944C16.6003 15.094 16.5966 15.0937 16.5931 15.0937C16.527 15.0937 16.4773 15.1623 16.5006 15.2264C16.6429 15.6167 16.5582 16.071 16.245 16.3841C16.0299 16.5993 15.7482 16.7066 15.4665 16.7066C15.3287 16.7066 15.191 16.6809 15.0609 16.6297C15.0493 16.6252 15.0375 16.623 15.026 16.623C14.9711 16.623 14.9216 16.6713 14.9269 16.7305C14.9633 17.1443 14.7639 17.5611 14.3803 17.7826C14.2069 17.8827 14.0177 17.9303 13.831 17.9303C13.5955 17.9303 13.3639 17.8546 13.173 17.7133C13.1556 17.7005 13.1357 17.6946 13.1162 17.6946C13.0706 17.6946 13.0261 17.7265 13.0174 17.7759C12.9455 18.1851 12.6451 18.5362 12.2172 18.6508C12.1217 18.6764 12.0259 18.6886 11.9315 18.6886C11.5937 18.6886 11.2762 18.5318 11.0689 18.2713C11.0494 18.2469 11.0212 18.2353 10.9929 18.2353C10.9562 18.2353 10.9196 18.2548 10.9026 18.2915C10.727 18.6682 10.346 18.9295 9.90311 18.9295C9.45087 18.9295 9.06323 18.6572 8.89305 18.2678C8.87603 18.229 8.83825 18.2076 8.80033 18.2076C8.77326 18.2076 8.74606 18.2185 8.7265 18.2418C8.51921 18.4894 8.20981 18.6376 7.88139 18.6376C7.78706 18.6376 7.69111 18.6254 7.59571 18.5999C7.15822 18.4826 6.85391 18.1181 6.79094 17.6971C6.78343 17.6466 6.73854 17.6139 6.69205 17.6139C6.67315 17.6139 6.65386 17.6194 6.63671 17.6315C6.45032 17.7621 6.22789 17.8319 6.00157 17.8319C5.81491 17.8319 5.62571 17.7844 5.45219 17.6841C5.05999 17.4577 4.86047 17.0269 4.90857 16.6039C4.9154 16.5441 4.86556 16.4948 4.80955 16.4948C4.79869 16.4948 4.78757 16.4965 4.77659 16.5006C4.65438 16.5452 4.52588 16.5674 4.39751 16.5674C4.11559 16.5674 3.83393 16.4601 3.61887 16.245C3.29862 15.9246 3.21728 15.4569 3.37325 15.0608C3.39858 14.9967 3.34846 14.9264 3.2812 14.9264C3.27825 14.9264 3.27544 14.9265 3.27262 14.9268C3.24033 14.9296 3.20817 14.9311 3.17588 14.9311C2.79493 14.9311 2.42457 14.734 2.22036 14.3802C1.99391 13.988 2.03652 13.5152 2.28977 13.1729C2.33238 13.1152 2.29781 13.0298 2.22706 13.0174C1.81784 12.9454 1.4669 12.645 1.3522 12.2171C1.23496 11.7796 1.39843 11.3338 1.73168 11.0689C1.78782 11.0242 1.77657 10.9328 1.71145 10.9025C1.33478 10.7271 1.07349 10.346 1.07349 9.90305C1.07349 9.45095 1.34577 9.06317 1.7353 8.893C1.80189 8.86379 1.8169 8.77321 1.76116 8.72658C1.44238 8.45966 1.28842 8.02364 1.40312 7.59566C1.52037 7.15817 1.88484 6.85387 2.30598 6.79089C2.377 6.7803 2.41278 6.69548 2.37164 6.63666C2.13313 6.29645 2.09735 5.83577 2.31885 5.45228C2.52305 5.09853 2.89328 4.90156 3.27423 4.90156C3.31577 4.90156 3.35744 4.90384 3.39911 4.90866C3.40273 4.90907 3.40648 4.9092 3.4101 4.9092C3.47603 4.9092 3.52574 4.84059 3.50242 4.77668C3.36012 4.38622 3.44481 3.93198 3.75795 3.61883C3.97315 3.40363 4.25481 3.29644 4.5366 3.29644C4.67435 3.29644 4.81209 3.32203 4.9422 3.37335C4.95373 3.37791 4.96552 3.37992 4.97704 3.37992C5.03198 3.37992 5.08142 3.33168 5.0762 3.27259C5.03975 2.85868 5.23914 2.44182 5.62277 2.22033C5.79615 2.12023 5.98536 2.07266 6.17201 2.07266C6.40758 2.07266 6.63925 2.14837 6.83006 2.28974C6.84748 2.30246 6.86731 2.30836 6.88688 2.30836C6.93243 2.30836 6.97692 2.2766 6.98563 2.22703C7.05759 1.81781 7.358 1.46687 7.78585 1.35217C7.88139 1.32658 7.97719 1.31439 8.07153 1.31439C8.40933 1.31439 8.7269 1.47116 8.93419 1.73165C8.95362 1.75617 8.98189 1.76783 9.01016 1.76783C9.04688 1.76783 9.08346 1.74813 9.10061 1.71141C9.27601 1.33475 9.65709 1.07346 10.0999 1.07346Z" fill="black"/>
</svg>
